<?xml version="1.0" encoding="UTF-8" standalone="no"?>
<!-- Created with Inkscape (http://www.inkscape.org/) -->

<svg
   width="1761.3815mm"
   height="605.48987mm"
   viewBox="0 0 1761.3814 605.48987"
   version="1.1"
   id="svg1"
   xml:space="preserve"
   sodipodi:docname="logo  website.svg"
   inkscape:version="1.4.2 (ebf0e940, 2025-05-08)"
   xmlns:inkscape="http://www.inkscape.org/namespaces/inkscape"
   xmlns:sodipodi="http://sodipodi.sourceforge.net/DTD/sodipodi-0.dtd"
   xmlns:xlink="http://www.w3.org/1999/xlink"
   xmlns="http://www.w3.org/2000/svg"
   xmlns:svg="http://www.w3.org/2000/svg"><sodipodi:namedview
   id="namedview1"
   pagecolor="#ffffff"
   bordercolor="#000000"
   borderopacity="0.25"
   inkscape:showpageshadow="2"
   inkscape:pageopacity="0.0"
   inkscape:pagecheckerboard="0"
   inkscape:deskcolor="#d1d1d1"
   inkscape:document-units="mm"
   inkscape:zoom="0.14955174"
   inkscape:cx="4145.7225"
   inkscape:cy="772.30798"
   inkscape:window-width="1728"
   inkscape:window-height="1056"
   inkscape:window-x="0"
   inkscape:window-y="33"
   inkscape:window-maximized="1"
   inkscape:current-layer="svg1" />
    <defs
   id="defs12"><linearGradient
     id="linearGradient26"
     x1="0"
     y1="0"
     x2="1"
     y2="0">
<stop
   offset="-99"
   stop-color="#7A4E3A"
   id="stop26" />
    <stop
   offset="-84"
   stop-color="#C78F75"
   id="stop25" />
    <stop
   offset="-64"
   stop-color="#F7D5C0"
   id="stop24" />
    <stop
   offset="-49"
   stop-color="#F7D5C0"
   id="stop23" />
    <stop
   offset="-34"
   stop-color="#FFE4D2"
   id="stop22" />
    <stop
   offset="-14"
   stop-color="#C78F75"
   id="stop21" />
    <stop
   offset="1"
   stop-color="#7A4E3A"
   id="stop20" />
    </linearGradient><linearGradient
     id="linearGradient18"
     x1="0"
     y1="0"
     x2="1"
     y2="0">
    <stop
   offset="0%"
   stop-color="#7A4E3A"
   id="stop12" />
    <stop
   offset="0.1201087"
   stop-color="#C78F75"
   id="stop13" />
    <stop
   offset="35%"
   stop-color="#FFE4D2"
   id="stop14" />
    <stop
   offset="50%"
   stop-color="#F7D5C0"
   id="stop15" />
    <stop
   offset="65%"
   stop-color="#F7D5C0"
   id="stop16" />
    <stop
   offset="85%"
   stop-color="#C78F75"
   id="stop17" />
    <stop
   offset="100%"
   stop-color="#7A4E3A"
   id="stop18" />
</linearGradient><linearGradient
     id="roseGold"
     x1="0"
     y1="0"
     x2="1"
     y2="0">
    <stop
   offset="0%"
   stop-color="#7A4E3A"
   id="stop1" />
    <stop
   offset="15%"
   stop-color="#C78F75"
   id="stop2" />
    <stop
   offset="35%"
   stop-color="#FFE4D2"
   id="stop3" />
    <stop
   offset="50%"
   stop-color="#F7D5C0"
   id="stop4" />
    <stop
   offset="65%"
   stop-color="#F7D5C0"
   id="stop5" />
    <stop
   offset="85%"
   stop-color="#C78F75"
   id="stop6" />
    <stop
   offset="100%"
   stop-color="#7A4E3A"
   id="stop7" />
</linearGradient><linearGradient
     xlink:href="#roseGold"
     id="linearGradient21"
     gradientUnits="userSpaceOnUse"
     x1="64.395004"
     y1="95.253052"
     x2="68.172195"
     y2="94.518845"
     spreadMethod="reflect"
     gradientTransform="matrix(0,16.416533,-16.428801,0,2211.913,-950.77675)" /><linearGradient
     xlink:href="#roseGold"
     id="linearGradient35"
     x1="57.915813"
     y1="99.430748"
     x2="65.722061"
     y2="99.430748"
     gradientUnits="userSpaceOnUse"
     gradientTransform="matrix(0,16.416533,-16.428801,0,2211.913,-950.77675)" /><linearGradient
     xlink:href="#linearGradient18"
     id="linearGradient47"
     x1="69.451614"
     y1="95.452087"
     x2="70.237198"
     y2="110.44181"
     gradientUnits="userSpaceOnUse"
     gradientTransform="matrix(0,16.416533,-16.428801,0,2211.913,-950.77675)"
     spreadMethod="repeat" /><linearGradient
     xlink:href="#linearGradient26"
     id="linearGradient20"
     x1="719.3927"
     y1="683.39514"
     x2="208.85373"
     y2="683.39514"
     gradientUnits="userSpaceOnUse"
     gradientTransform="matrix(1.3477718,0,0,1.3477718,518.64538,-723.59769)" /></defs>

      <g
   id="layer2"
   style="display:inline"
   transform="translate(-107.11357)"><path
     id="path8-1-4"
     style="display:inline;fill:#dbae97;stroke:none;stroke-width:2.16481;stroke-linecap:round;stroke-linejoin:round;stroke-miterlimit:0.8;stroke-dasharray:none;stroke-opacity:1;paint-order:fill markers stroke;fill-opacity:1"
     d="M 574.35223 0.0020670573 C 573.353 0.017425225 572.36394 0.11245685 571.39066 0.28990479 C 570.4148 0.46112179 569.46388 0.72896281 568.5221 1.0572998 L 568.52313 1.0624674 C 554.42753 6.1349964 544.40092 28.730971 547.26758 52.024731 C 550.3253 76.871339 568.05366 102.50967 585.78048 128.15135 C 599.19778 96.83112 612.61092 65.512353 609.55319 40.665735 C 606.68651 17.371921 589.34073 -0.22830545 574.35223 0.0020670573 z M 575.53821 8.9916992 C 586.37192 8.6327355 600.16292 22.703648 603.18407 40.50037 C 606.30267 58.87113 597.94459 81.20708 589.58696 103.54355 C 576.00215 83.89294 562.41651 64.247704 559.29786 45.876786 C 556.37436 28.654236 562.64976 12.557298 572.48568 9.5058797 C 573.14117 9.3077267 573.81465 9.1578227 574.49951 9.0717977 C 574.84237 9.0298279 575.18873 9.0032787 575.53821 8.9916992 z M 666.86235 105.81835 C 643.77699 106.52029 616.35259 118.24865 588.92705 129.98018 C 614.5877 147.69358 640.2454 165.4087 665.11052 168.46414 C 688.42177 171.32861 711.03476 161.30983 716.11102 147.22461 L 716.11619 147.22564 C 716.44478 146.28459 716.7129 145.33329 716.88462 144.35915 C 719.72592 128.7982 701.3432 109.28016 676.47778 106.22452 C 673.36963 105.8426 670.16026 105.71807 666.86235 105.81835 z M 669.57123 111.9358 C 671.98555 111.98936 674.34559 112.19944 676.64366 112.58899 C 695.02808 115.70513 709.43953 130.28908 708.09549 141.25236 C 708.0094 141.93734 707.85945 142.60948 707.66089 143.26516 C 704.6067 153.09343 688.49818 159.3638 671.26311 156.44265 C 652.87854 153.32643 633.21876 139.75101 613.55346 126.17628 C 633.11251 118.86885 652.67096 111.56089 669.57123 111.9358 z " /><path
     id="path6-7-2"
     style="display:inline;fill:none;fill-opacity:1;fill-rule:nonzero;stroke:#dbae97;stroke-width:18.2464;stroke-linecap:round;stroke-linejoin:round;stroke-miterlimit:0.8;stroke-dasharray:none;stroke-opacity:1;paint-order:fill markers stroke"
     d="M 404.49375,79.519839 634.93559,310.82397 m -465.6931,-3e-5 230.84022,226.72605 M 116.23677,363.79007 348.45939,596.36669 M 229.79233,253.55403 571.23451,596.36669 M 462.5782,21.478621 229.7925,253.55419 M 805.31116,363.79007 571.23451,596.36669 M 694.82716,254.09085 348.45939,596.36669 M 752.30544,310.82394 521.46515,537.54998 M 462.5782,21.478621 694.82716,254.09085" /><text
     xml:space="preserve"
     style="font-style:normal;font-variant:normal;font-weight:normal;font-stretch:normal;font-size:282.222px;line-height:1.2;font-family:Parisienne;-inkscape-font-specification:'Parisienne, Normal';font-variant-ligatures:normal;font-variant-caps:normal;font-variant-numeric:normal;font-variant-east-asian:normal;text-align:start;word-spacing:0.672042px;writing-mode:lr-tb;direction:ltr;text-anchor:start;fill:#dbae97;stroke-width:39.9999;stroke-linejoin:bevel;stroke-miterlimit:0.8;paint-order:stroke markers fill;fill-opacity:1"
     x="1324.377"
     y="217.19638"
     id="text1"><tspan
       id="tspan1"
       style="font-style:normal;font-variant:normal;font-weight:normal;font-stretch:normal;font-size:282.222px;line-height:1.2;font-family:Parisienne;-inkscape-font-specification:'Parisienne, Normal';font-variant-ligatures:normal;font-variant-caps:normal;font-variant-numeric:normal;font-variant-east-asian:normal;text-align:center;word-spacing:0.672042px;text-anchor:middle;fill:#dbae97;stroke-width:39.9999;fill-opacity:1"
       x="1324.377"
       y="217.19638">Wrapped</tspan><tspan
       style="font-style:normal;font-variant:normal;font-weight:normal;font-stretch:normal;font-size:282.222px;line-height:1.2;font-family:Parisienne;-inkscape-font-specification:'Parisienne, Normal';font-variant-ligatures:normal;font-variant-caps:normal;font-variant-numeric:normal;font-variant-east-asian:normal;text-align:center;word-spacing:0.672042px;text-anchor:middle;fill:#dbae97;stroke-width:39.9999;fill-opacity:1"
       x="1324.377"
       y="555.86279"
       id="tspan2">Whishes</tspan></text></g></svg>
